<svg width="15" height="15" viewBox="0 0 15 15" fill="none" xmlns="http://www.w3.org/2000/svg">
<path d="M7.5 0C3.36198 0 0 3.36211 0 7.5C0 11.638 3.36212 15 7.5 15C11.638 15 15 11.6379 15 7.5C15 3.36198 11.6381 0 7.5 0ZM7.5 13.9655C3.93099 13.9655 1.03448 11.069 1.03448 7.5C1.03448 3.93099 3.93099 1.03448 7.5 1.03448C11.069 1.03448 13.9655 3.93099 13.9655 7.5C13.9655 11.069 11.069 13.9655 7.5 13.9655Z" fill="#9E9E9E"/>
<path d="M8.01731 9.31033V3.51723H6.98292V9.31033L4.21559 6.95684L3.54322 7.73274L7.50012 11.1206L11.457 7.73274L10.7846 6.95684L8.01731 9.31033Z" fill="#9E9E9E"/>
</svg>
