<svg width="23" height="23" viewBox="0 0 23 23" fill="none" xmlns="http://www.w3.org/2000/svg">
    <path d="M5.59278 16.7255C3.40876 15.5597 1.53316 13.8905 0.121121 11.8559C0.109088 11.8439 0.109088 11.8317 0.0968446 11.8196C0.0628576 11.7723 0.0381608 11.7189 0.0242236 11.6622C-0.00807454 11.5516 -0.00807454 11.4337 0.0242236 11.323C0.0485 11.2624 0.0725656 11.214 0.0968446 11.1656C0.254115 10.9113 4.21261 4.80632 11.5 4.80632C12.1485 4.80421 12.796 4.85279 13.4369 4.95165L11.8874 7.27734C11.7593 7.25727 11.6297 7.24925 11.5 7.25326C10.0139 7.25411 8.63695 8.03401 7.8713 9.30836C7.10564 10.5829 7.06322 12.1655 7.75963 13.4792L5.59278 16.7255ZM22.9999 11.4926C22.997 11.5499 22.9888 11.6065 22.9757 11.6622C22.9617 11.7188 22.937 11.7723 22.903 11.8196C22.891 11.8316 22.891 11.8439 22.8788 11.8559C22.4914 12.4495 18.5572 18.179 11.4999 18.179C10.3469 18.1775 9.19936 18.0174 8.08978 17.7029L4.74032 22.7298C4.62823 22.8984 4.4393 22.9998 4.23685 23C4.11737 23.0002 4.00063 22.9649 3.90142 22.8982C3.62341 22.7127 3.54825 22.3371 3.73317 22.0588L18.2594 0.255415C18.4488 -0.0117946 18.8161 -0.0800222 19.0886 0.101635C19.3611 0.283086 19.4399 0.648503 19.2666 0.926507L16.0999 5.67842C18.8547 6.80303 21.2198 8.71066 22.9031 11.1655C22.9274 11.2139 22.9514 11.2624 22.9757 11.3229C22.9888 11.3786 22.997 11.4352 23 11.4925L22.9999 11.4926ZM15.7368 11.4926H15.7366C15.736 10.2894 15.222 9.14351 14.3239 8.34335L13.6425 9.36803C14.3092 10.029 14.6299 10.9633 14.5093 11.8946C14.389 12.826 13.8414 13.6479 13.0285 14.1172C12.2157 14.5868 11.2305 14.65 10.3644 14.2883L9.67812 15.3179C10.9903 15.9433 12.5315 15.8519 13.7608 15.0758C14.99 14.2997 15.736 12.9472 15.7366 11.4926L15.7368 11.4926ZM8.57044 12.2558L11.0762 8.50071C10.3544 8.60104 9.69347 8.9593 9.21509 9.50911C8.73675 10.059 8.47327 10.7636 8.47349 11.4926C8.47433 11.7499 8.50684 12.0063 8.57039 12.2558H8.57044Z" fill="#A1A2A4" />
</svg>