<svg width="25" height="14" viewBox="0 0 25 14" fill="none" xmlns="http://www.w3.org/2000/svg">
    <path d="M24.9738 6.82237C24.9474 6.7589 24.9212 6.70826 24.8948 6.65762C24.7239 6.39136 20.4212 0 12.5 0C4.57892 0 0.2762 6.39097 0.105266 6.65762C0.0788785 6.70826 0.0527203 6.75912 0.02633 6.82237C-0.00877668 6.93825 -0.00877668 7.06165 0.02633 7.17752C0.0414738 7.23679 0.0683206 7.29274 0.105266 7.34228C0.118345 7.35488 0.118345 7.36771 0.131653 7.38031C0.552703 8.00175 4.82905 14 12.5 14C20.1709 14 24.4472 8.00192 24.8683 7.38031C24.8814 7.36771 24.8814 7.35488 24.8947 7.34228C24.9317 7.29274 24.9585 7.23679 24.9737 7.17752C25.0088 7.06164 25.0088 6.93824 24.9737 6.82237H24.9738ZM12.5003 11.4383C11.2789 11.4383 10.1075 10.9708 9.24383 10.1384C8.38011 9.306 7.89509 8.17705 7.89509 6.99991C7.89509 5.82277 8.38016 4.69386 9.24383 3.86143C10.1075 3.029 11.2789 2.56155 12.5003 2.56155C13.7217 2.56155 14.893 3.02905 15.7567 3.86143C16.6204 4.69381 17.1054 5.82277 17.1054 6.99991C17.1054 8.17705 16.6204 9.30596 15.7567 10.1384C14.893 10.9708 13.7217 11.4383 12.5003 11.4383ZM15.7897 6.99996C15.7897 7.84077 15.4432 8.64727 14.8263 9.2417C14.2095 9.83636 13.3727 10.1703 12.5003 10.1703C11.6279 10.1703 10.791 9.83634 10.1743 9.2417C9.55727 8.64727 9.21081 7.84077 9.21081 6.99996C9.21081 6.15916 9.55729 5.35266 10.1743 4.75823C10.791 4.16357 11.6279 3.82967 12.5003 3.82967C13.3727 3.82967 14.2095 4.16359 14.8263 4.75823C15.4433 5.35266 15.7897 6.15916 15.7897 6.99996Z" fill="#A1A2A4" />
</svg>