<svg width="28" height="24" viewBox="0 0 28 24" fill="none" xmlns="http://www.w3.org/2000/svg">
<path d="M24.095 2.94484C23.4841 2.32823 22.7589 1.83909 21.9606 1.50537C21.1623 1.17165 20.3067 0.999878 19.4426 0.999878C18.5785 0.999878 17.7229 1.17165 16.9246 1.50537C16.1263 1.83909 15.401 2.32823 14.7902 2.94484L13.5224 4.22393L12.2547 2.94484C11.0208 1.69992 9.34723 1.00052 7.60223 1.00052C5.85724 1.00052 4.18371 1.69992 2.94982 2.94484C1.71592 4.18977 1.02272 5.87825 1.02272 7.63885C1.02272 9.39944 1.71592 11.0879 2.94982 12.3328L4.21757 13.6119L13.5224 22.9999L22.8272 13.6119L24.095 12.3328C24.7061 11.7165 25.191 10.9848 25.5217 10.1793C25.8525 9.37393 26.0227 8.51066 26.0227 7.63885C26.0227 6.76703 25.8525 5.90376 25.5217 5.09835C25.191 4.29293 24.7061 3.56116 24.095 2.94484V2.94484Z" stroke="white" stroke-width="2" stroke-linecap="round" stroke-linejoin="round"/>
</svg>
