<svg width="69" height="52" viewBox="0 0 69 52" xmlns="http://www.w3.org/2000/svg">
<path fill-rule="evenodd" clip-rule="evenodd" d="M56.5803 16.6462L58.3434 18.4022C60.0301 16.7985 61.027 14.5082 61.027 11.9884C61.027 9.46864 59.9537 7.25443 58.3434 5.57458L56.5803 7.33065C57.807 8.47578 58.5734 10.1557 58.5734 11.9884C58.5734 13.8211 57.8066 15.5011 56.5803 16.6462ZM59.4168 19.5479L61.1799 21.3039C63.5564 18.937 65.0898 15.6534 65.0898 12.0645C65.0898 8.39951 63.5566 5.1159 61.1799 2.82506L59.4168 4.58113C61.4099 6.49005 62.6367 9.1628 62.6367 12.1406C62.6367 14.9667 61.41 17.6389 59.4168 19.5479ZM62.1767 22.3729L63.9399 24.129C67.0834 21.075 69 16.7985 69 12.0646C69 7.33079 67.0834 3.05481 63.9399 0.000272553L62.1767 1.75634C64.8603 4.35233 66.547 8.01786 66.547 12.0648C66.5464 16.036 64.8603 19.7007 62.1767 22.3729ZM45.3102 18.4028L47.0734 16.6467C45.8466 15.5016 45.0802 13.8217 45.0802 11.989C45.0802 10.1563 45.8471 8.47628 47.0734 7.3312L45.3102 5.57513C43.6236 7.17889 42.6267 9.46918 42.6267 11.989C42.6267 14.5083 43.6235 16.799 45.3102 18.4028ZM41.4 22.3729C38.7164 19.7769 37.0298 16.1114 37.0298 12.0645C37.0298 8.01759 38.7164 4.3526 41.4 1.75607L39.6368 0C36.4934 3.054 34.5767 7.33052 34.5767 12.0644C34.5767 16.7982 36.4934 21.0742 39.6368 24.1287L41.4 22.3729ZM60.3365 32.8342H54.51L53.7431 13.2869C53.7431 11.6831 53.3597 10.8432 51.8265 10.8432C50.2162 10.8432 49.9098 11.6831 49.9098 13.2869L49.143 32.8342H3.75676C1.68665 32.8342 0 34.514 0 36.5758V48.2584C0 50.3202 1.68665 52 3.75676 52H60.3362C62.4063 52 64.0929 50.3202 64.0929 48.2584L64.0924 36.4992C64.0159 34.514 62.4066 32.8342 60.3365 32.8342ZM8.51035 47.342C8.51035 47.9529 8.05044 48.4109 7.43706 48.4109C6.82366 48.4109 6.36376 47.9529 6.36376 47.342V43.1422C6.36376 42.5313 6.82367 42.0732 7.43706 42.0732C8.05045 42.0732 8.51035 42.5313 8.51035 43.1422V47.342ZM12.88 47.342C12.88 47.9529 12.4201 48.4109 11.8067 48.4109C11.1934 48.4109 10.7334 47.9529 10.7334 47.342V43.1422C10.7334 42.5313 11.1934 42.0732 11.8067 42.0732C12.4201 42.0732 12.88 42.5313 12.88 43.1422V47.342ZM42.3964 21.3043L44.1596 19.5483C42.1664 17.6394 40.9396 14.9666 40.9396 11.9888C40.9396 9.01091 42.1664 6.33829 44.1596 4.42937L42.3964 2.6733C40.0199 5.04022 38.4866 8.32383 38.4866 11.9127C38.4866 15.6544 40.0197 18.9374 42.3964 21.3043Z" />
</svg>
