<svg width="19" height="24" viewBox="0 0 19 24" fill="none" xmlns="http://www.w3.org/2000/svg">
<path d="M15.665 9.48892C15.665 6.08191 12.911 3.33122 9.50004 3.33122C6.08908 3.33122 3.33512 6.08195 3.33512 9.48892C3.33512 11.5836 4.3963 13.4258 5.9627 14.5362C6.19006 14.1072 6.49338 13.7286 6.84711 13.4006C5.5838 12.5426 4.75002 11.1041 4.75002 9.48892C4.75002 6.88956 6.87233 4.7697 9.47478 4.7697C12.0772 4.7697 14.1995 6.88952 14.1995 9.48892C14.1995 11.1041 13.3658 12.5678 12.1025 13.4006C12.4562 13.7034 12.7593 14.1072 13.012 14.5362C14.6292 13.4006 15.6652 11.5584 15.6652 9.48892H15.665Z" fill="white"/>
<path d="M9.50004 0C4.26997 0 0 4.26501 0 9.48892C0 13.2996 2.24868 16.5804 5.508 18.0946V16.4794C3.08237 15.0914 1.44017 12.4921 1.44017 9.51416C1.46555 5.04725 5.07853 1.43848 9.50004 1.43848C13.9468 1.43848 17.5347 5.04721 17.5347 9.46369C17.5347 12.4415 15.9176 15.041 13.492 16.429V18.0441C16.7261 16.5298 19 13.2492 19 9.43845C19.0002 4.26497 14.7303 0 9.50041 0H9.50004Z" fill="white"/>
<path d="M12.3046 9.48892C12.3046 11.0361 11.0489 12.2902 9.50004 12.2902C7.95123 12.2902 6.69551 11.0361 6.69551 9.48892C6.69551 7.94193 7.95123 6.68767 9.50004 6.68767C11.0489 6.68767 12.3046 7.94193 12.3046 9.48892Z" fill="white"/>
<path d="M9.50004 14.0315C8.21152 14.0315 7.12499 15.0914 7.12499 16.4038V21.6277C7.12499 22.9147 8.18616 24 9.50004 24C10.8139 24 11.8751 22.9401 11.8751 21.6277V16.4038C11.8751 15.0914 10.8139 14.0315 9.50004 14.0315Z" fill="white"/>
</svg>
