<svg width="22" height="22" viewBox="0 0 22 22" fill="none" xmlns="http://www.w3.org/2000/svg">
<path d="M2.92877 16.1319C1.31314 16.1319 1.52588e-05 17.449 1.52588e-05 19.0549C1.52588e-05 20.6691 1.31314 21.9725 2.92877 21.9725C4.54989 21.9725 5.86164 20.6691 5.86164 19.0549C5.86164 17.449 4.54989 16.1319 2.92877 16.1319ZM0.00276526 7.47403V11.6909C2.74864 11.6909 5.32952 12.7647 7.27377 14.7102C9.21527 16.6502 10.2878 19.2433 10.2878 22H14.5228C14.5228 13.9911 8.00664 7.47541 0.00276526 7.47541V7.47403ZM0.00826526 0V4.21824C9.80102 4.21824 17.7705 12.1955 17.7705 21.9986H22C22 9.87188 12.133 0 0.00826526 0Z" fill="#FFC739"/>
</svg>
