<svg width="16" height="14" viewBox="0 0 16 14" fill="none" xmlns="http://www.w3.org/2000/svg">
<path d="M11.4285 1.07695C13.3194 1.07695 14.8571 2.52597 14.8571 4.3077C14.8571 9.1387 9.58785 12.04 7.99814 12.8057C6.40446 12.0426 1.14293 9.15645 1.14293 4.3077C1.14293 2.52595 2.68067 1.07695 4.57147 1.07695C5.55256 1.07695 6.48861 1.47752 7.14232 2.17645C7.35944 2.40848 7.672 2.54207 8 2.54207C8.328 2.54207 8.64058 2.40858 8.85768 2.17645C9.51142 1.47752 10.4474 1.07695 11.4285 1.07695ZM11.4285 0C10.0611 0 8.83767 0.56865 8 1.46512C7.16233 0.56865 5.9389 0 4.57147 0C2.04693 0 0 1.9288 0 4.30775C0 10.7692 8 14 8 14C8 14 16 10.7692 16 4.30775C16 1.92885 13.9531 0 11.4285 0V0Z" fill="#9E9E9E"/>
</svg>
