<svg width="22" height="17" viewBox="0 0 22 17" fill="none" xmlns="http://www.w3.org/2000/svg">
<path d="M21.5403 2.58169C21.2873 1.56548 20.5418 0.765145 19.5953 0.493539C17.8796 0 11 0 11 0C11 0 4.12046 0 2.40476 0.493539C1.45823 0.765188 0.712745 1.56548 0.459727 2.58169C1.52588e-05 4.42363 1.52588e-05 8.26667 1.52588e-05 8.26667C1.52588e-05 8.26667 1.52588e-05 12.1097 0.459727 13.9517C0.712745 14.9679 1.45823 15.7349 2.40476 16.0065C4.12046 16.5 11 16.5 11 16.5C11 16.5 17.8796 16.5 19.5953 16.0065C20.5418 15.7349 21.2873 14.9679 21.5403 13.9517C22 12.1097 22 8.26667 22 8.26667C22 8.26667 22 4.42363 21.5403 2.58169V2.58169ZM8.75 11.7559V4.77748L14.5 8.26676L8.75 11.7559V11.7559Z" fill="white" fill-opacity="0.9"/>
</svg>
